<?xml version="1.0" standalone="no"?>
<!DOCTYPE svg PUBLIC "-//W3C//DTD SVG 20010904//EN"
 "http://www.w3.org/TR/2001/REC-SVG-20010904/DTD/svg10.dtd">
<svg version="1.0" xmlns="http://www.w3.org/2000/svg"
 width="300.000000pt" height="300.000000pt" viewBox="0 0 300.000000 300.000000"
 preserveAspectRatio="xMidYMid meet">
<metadata>
Created by potrace 1.10, written by Peter Selinger 2001-2011
</metadata>
<g transform="translate(0.000000,300.000000) scale(0.100000,-0.100000)"
fill="#000000" stroke="none">
<path d="M1672 2279 c-12 -5 -25 -15 -28 -22 -4 -10 -34 -16 -103 -21 -109 -7
-186 -15 -216 -21 -11 -2 -29 3 -39 11 -30 22 -63 17 -82 -11 -9 -14 -14 -28
-11 -32 4 -3 -51 -32 -121 -63 -101 -45 -132 -55 -151 -48 -17 6 -31 4 -48 -8
-22 -14 -24 -21 -19 -54 5 -32 -1 -49 -40 -119 -30 -53 -52 -81 -64 -81 -23 0
-53 -34 -48 -57 2 -10 15 -23 29 -30 24 -12 27 -20 33 -90 5 -63 3 -79 -9 -86
-21 -12 -19 -51 5 -72 17 -15 24 -16 46 -6 23 10 39 7 120 -24 52 -19 101 -35
109 -35 10 0 15 -10 15 -30 0 -31 22 -50 57 -50 30 0 56 24 56 51 0 21 10 30
70 57 48 22 74 29 81 22 5 -5 19 -10 30 -10 16 0 34 -24 74 -92 28 -50 52 -99
52 -109 0 -27 21 -35 37 -14 7 11 34 27 60 37 43 16 49 16 64 2 10 -9 26 -14
37 -12 31 5 173 -194 166 -231 -12 -58 68 -81 82 -24 5 20 2 31 -14 44 -27 21
-31 89 -6 110 32 26 156 69 174 59 19 -10 40 5 40 30 1 22 126 150 148 150 40
0 56 48 25 72 -15 11 -19 32 -21 122 -3 100 -2 109 17 123 12 8 21 22 21 32 0
21 -30 51 -52 51 -8 0 -32 28 -53 63 -21 34 -53 83 -72 109 -20 28 -29 49 -23
53 15 9 12 51 -5 65 -9 7 -27 10 -44 7 -22 -5 -60 8 -158 52 -70 32 -136 61
-145 64 -11 4 -18 17 -18 31 0 31 -27 47 -58 35z m-32 -62 c0 -7 -25 -34 -56
-59 -45 -39 -60 -46 -83 -42 -16 3 -31 1 -35 -4 -4 -7 -36 3 -86 26 -78 37
-101 61 -57 63 12 0 81 6 152 14 72 7 138 13 148 14 9 0 17 -5 17 -12z m238
-77 c100 -46 141 -70 142 -82 0 -22 -89 -63 -104 -48 -5 5 -21 10 -35 10 -21
1 -40 19 -91 88 -36 48 -67 91 -69 96 -4 11 -11 13 157 -64z m-158 41 c0 -4
29 -45 64 -92 36 -46 61 -88 57 -92 -5 -5 -39 1 -77 12 -38 11 -103 29 -144
39 -96 25 -100 40 -24 102 46 39 60 45 89 42 19 -2 35 -7 35 -11z m-505 -32
c4 -6 -7 -39 -24 -74 l-32 -64 -42 4 c-23 3 -69 7 -102 9 -37 2 -60 8 -60 15
0 6 43 31 95 54 52 24 104 48 115 55 25 14 42 15 50 1z m160 -23 c93 -43 93
-62 2 -91 -34 -10 -66 -19 -71 -19 -15 -1 -36 117 -24 132 14 16 8 17 93 -22z
m-106 -43 c6 -31 11 -60 11 -65 0 -4 -24 -8 -53 -8 l-54 0 31 64 c17 36 36 65
42 65 6 1 16 -25 23 -56z m206 -143 c-4 -41 -11 -79 -16 -85 -6 -6 -35 17 -79
60 -39 38 -70 72 -70 76 0 4 30 18 68 31 61 22 69 23 85 9 17 -14 18 -25 12
-91z m233 68 c67 -18 122 -38 122 -44 0 -6 -72 -37 -160 -68 -129 -46 -164
-55 -175 -46 -8 7 -13 15 -10 19 2 4 5 36 6 72 1 55 5 67 28 86 16 14 34 21
46 18 11 -3 75 -20 143 -37z m332 -119 c-5 -63 -9 -139 -9 -169 l1 -55 9 50
c5 28 12 104 16 169 5 68 13 121 19 123 5 2 18 -11 27 -29 9 -18 39 -67 66
-109 67 -104 63 -123 -38 -182 -101 -59 -108 -55 -161 87 -23 61 -45 117 -50
125 -5 9 -2 23 7 38 8 12 13 28 10 35 -3 8 14 22 42 35 69 32 74 23 61 -118z
m-892 106 c2 -1 -18 -46 -45 -99 -29 -60 -53 -96 -63 -96 -22 0 -103 165 -94
192 6 20 11 20 103 14 53 -4 97 -9 99 -11z m125 -15 c11 -10 -2 -122 -17 -141
-10 -14 -126 -59 -150 -59 -39 1 -37 18 14 119 l51 102 47 -7 c26 -3 51 -10
55 -14z m-305 -95 c42 -84 42 -86 25 -111 -17 -23 -22 -25 -77 -20 -32 4 -73
6 -91 6 -52 0 -51 29 3 126 40 71 51 84 72 84 22 0 31 -12 68 -85z m399 23
c35 -34 63 -67 63 -73 0 -7 -22 -10 -62 -7 -92 5 -90 4 -82 64 4 29 7 59 7 66
0 20 9 15 74 -50z m478 22 c8 -13 -124 -272 -135 -265 -5 3 -18 1 -29 -5 -16
-8 -25 -6 -43 12 -13 13 -47 44 -75 70 -35 33 -50 53 -47 65 4 13 48 35 157
75 173 64 164 61 172 48z m62 -37 c3 -10 25 -67 49 -127 41 -105 42 -110 26
-132 -16 -22 -22 -23 -120 -20 -145 4 -145 4 -63 167 48 94 70 129 84 129 9 0
20 -8 24 -17z m-409 -77 c5 -25 -12 -39 -37 -31 -20 6 -28 34 -14 49 13 13 48
1 51 -18z m-122 -6 c37 0 54 -4 54 -13 0 -7 -48 -52 -107 -101 -58 -49 -104
-83 -101 -75 3 8 16 51 28 94 24 88 36 109 57 100 8 -3 39 -5 69 -5z m-120
-16 c-3 -8 -15 -52 -27 -97 -11 -45 -22 -83 -24 -85 -2 -2 -28 16 -58 41 -39
32 -52 48 -46 58 5 8 6 21 4 30 -4 13 10 22 62 42 83 30 97 32 89 11z m-177
-18 c16 -19 10 -66 -10 -79 -26 -16 -68 0 -75 29 -12 47 55 87 85 50z m327
-107 c-30 -71 -50 -105 -63 -107 -10 -2 -22 -8 -27 -12 -9 -9 -86 29 -86 42 0
8 213 187 218 183 1 -1 -18 -49 -42 -106z m177 36 c54 -50 64 -65 60 -86 -4
-22 -14 -27 -76 -43 -40 -10 -92 -25 -116 -33 -39 -13 -45 -13 -59 0 -13 14
-10 27 28 121 42 100 59 121 86 107 6 -3 41 -33 77 -66z m-635 29 c17 -3 33
-9 34 -14 0 -6 1 -14 2 -18 1 -5 -33 -37 -74 -72 -41 -35 -77 -68 -80 -72 -3
-4 -15 -5 -26 -2 -18 5 -22 16 -27 80 -9 101 -2 111 77 107 33 -2 76 -6 94 -9z
m1286 -20 c13 -5 16 -25 16 -119 0 -63 -4 -116 -8 -119 -14 -8 -182 116 -182
134 0 12 27 34 78 63 42 25 78 45 79 46 1 1 8 -2 17 -5z m-1172 -144 c9 -57
19 -109 22 -115 2 -7 -5 -18 -17 -24 -18 -10 -40 -5 -127 26 -96 35 -105 40
-105 64 0 20 19 41 84 97 112 94 120 92 143 -48z m81 70 c25 -19 47 -42 49
-50 5 -22 -61 -140 -77 -140 -16 0 -18 7 -40 134 -20 122 -19 122 68 56z m574
-26 c1 -5 -2 -16 -7 -24 -12 -20 -35 2 -26 25 6 17 27 16 33 -1z m258 -24 c7
-11 -103 -139 -120 -140 -18 0 -107 119 -101 135 4 12 27 15 110 15 60 0 107
-4 111 -10z m-311 -27 c20 -15 21 -21 13 -72 -5 -31 -11 -71 -13 -88 -9 -61
-30 -59 -151 14 -140 83 -140 89 5 130 132 38 119 36 146 16z m558 -125 c4
-22 -8 -40 -63 -100 -37 -40 -69 -71 -71 -68 -9 12 -50 289 -43 299 4 7 37
-10 90 -46 64 -45 84 -64 87 -85z m-958 113 c24 -15 31 -27 31 -47 -1 -23 -11
-30 -70 -55 -40 -17 -72 -26 -77 -21 -12 12 52 142 70 142 8 0 29 -9 46 -19z
m761 -15 c20 -89 43 -262 36 -269 -5 -5 -81 3 -177 20 -198 33 -208 41 -111
91 68 35 98 40 116 18 20 -24 162 -129 167 -123 3 2 -37 37 -88 77 -51 39 -94
75 -96 79 -1 4 25 37 59 73 62 68 85 76 94 34z m-196 -96 c0 -21 -122 -89
-141 -79 -12 7 -12 20 -2 91 7 46 13 86 13 90 1 3 9 8 19 10 19 5 111 -87 111
-112z m-463 69 c8 -14 -18 -31 -30 -19 -9 9 0 30 14 30 5 0 12 -5 16 -11z
m141 -104 c82 -48 102 -65 103 -83 0 -13 -7 -25 -17 -28 -10 -3 -31 -11 -48
-18 -16 -7 -37 -11 -45 -9 -19 4 -122 181 -114 194 7 12 -2 17 121 -56z m-387
-15 c0 -11 -7 -20 -15 -20 -15 0 -21 21 -8 33 12 13 23 7 23 -13z m791 -123
c79 -13 139 -26 134 -29 -24 -14 -152 -52 -167 -50 -20 4 -33 -15 -21 -31 13
-16 15 -97 3 -97 -5 0 -14 8 -19 18 -5 9 -39 57 -75 105 -69 93 -76 123 -26
112 14 -3 91 -16 171 -28z"/>
<path d="M80 795 c0 -108 1 -115 20 -115 17 0 20 7 20 50 l0 50 45 0 45 0 0
-50 c0 -45 2 -50 23 -50 22 0 22 2 20 112 -1 106 -3 113 -22 116 -19 3 -21 -2
-21 -47 l0 -51 -45 0 -45 0 0 50 c0 43 -3 50 -20 50 -19 0 -20 -7 -20 -115z"/>
<path d="M771 888 c-5 -13 -25 -62 -44 -111 -34 -83 -35 -88 -17 -97 16 -9 21
-5 32 25 12 35 14 36 57 33 40 -3 45 -6 55 -36 10 -29 13 -31 29 -19 17 12 16
19 -24 120 -33 82 -47 107 -61 107 -10 0 -22 -10 -27 -22z m32 -116 c-34 -5
-37 1 -22 43 l14 37 16 -39 c16 -38 16 -38 -8 -41z"/>
<path d="M920 795 c0 -108 1 -115 20 -115 19 0 20 7 20 115 0 108 -1 115 -20
115 -19 0 -20 -7 -20 -115z"/>
<path d="M1025 877 c-31 -31 -35 -41 -35 -85 0 -72 34 -112 95 -112 57 0 74 7
68 29 -4 15 -12 18 -47 14 -37 -5 -46 -2 -60 18 -43 63 11 153 72 120 17 -9
22 -8 27 10 9 26 5 30 -44 36 -36 5 -44 2 -76 -30z"/>
<path d="M2027 893 c-4 -3 -7 -17 -7 -29 0 -21 -3 -22 -52 -17 -72 7 -101 -15
-102 -79 -1 -62 22 -88 79 -88 48 0 55 4 48 30 -4 15 -9 17 -29 10 -19 -8 -29
-5 -44 10 -42 42 -9 88 58 82 l42 -4 0 -47 c0 -53 16 -82 45 -81 11 0 48 1 83
0 79 0 102 11 102 51 0 26 -6 33 -40 47 -22 9 -40 21 -40 25 0 14 28 19 48 8
16 -8 21 -7 26 5 10 25 -2 34 -48 34 -49 0 -66 -13 -66 -53 0 -24 6 -31 40
-44 22 -9 40 -20 40 -25 0 -15 -28 -20 -50 -8 -14 7 -25 8 -29 3 -3 -5 -19 -9
-36 -9 -29 1 -30 3 -33 49 -3 45 -2 47 23 47 20 0 26 4 23 18 -3 11 -12 16
-26 15 -18 -2 -22 2 -22 27 0 28 -17 40 -33 23z"/>
<path d="M301 824 c-45 -57 -12 -144 55 -144 47 0 69 13 84 49 25 62 -14 121
-79 121 -31 0 -44 -6 -60 -26z m89 -24 c25 -25 25 -45 -1 -71 -18 -18 -23 -19
-42 -6 -27 18 -33 59 -12 81 21 21 31 20 55 -4z"/>
<path d="M458 845 c-3 -3 6 -42 20 -86 22 -66 30 -79 48 -79 17 0 24 10 36 53
l14 52 13 -52 c11 -44 17 -53 35 -53 18 0 26 12 46 73 30 88 30 92 6 92 -15 0
-23 -11 -32 -48 -7 -27 -14 -51 -17 -53 -3 -3 -10 18 -17 45 -10 42 -16 51
-34 51 -18 0 -25 -9 -36 -52 l-14 -53 -16 55 c-14 50 -35 72 -52 55z"/>
<path d="M1190 830 c-27 -27 -35 -65 -20 -101 15 -36 37 -49 84 -49 43 0 76
37 76 85 0 50 -33 85 -81 85 -25 0 -46 -7 -59 -20z m82 -27 c22 -20 23 -56 2
-77 -19 -19 -25 -20 -48 -3 -11 8 -18 26 -18 42 0 16 7 34 18 42 23 16 24 16
46 -4z"/>
<path d="M1350 764 c0 -84 0 -84 26 -84 25 0 25 2 23 56 -2 45 1 59 16 70 30
22 45 0 45 -67 0 -52 2 -59 20 -59 18 0 20 7 20 69 0 89 -10 100 -90 99 l-60
-1 0 -83z"/>
<path d="M1530 764 c0 -80 1 -84 23 -84 20 0 22 4 19 53 -3 43 0 56 17 71 18
16 23 17 37 5 13 -11 15 -25 11 -71 -5 -56 -4 -58 19 -58 23 0 24 3 24 63 0
90 -14 106 -90 105 l-60 -1 0 -83z"/>
<path d="M1721 824 c-12 -15 -21 -41 -21 -59 0 -18 9 -44 21 -59 17 -21 29
-26 65 -26 30 0 46 5 50 15 10 24 -5 36 -28 24 -15 -8 -27 -8 -44 0 -40 18
-27 31 31 31 53 0 55 1 55 28 0 46 -25 72 -70 72 -30 0 -43 -6 -59 -26z m77
-16 c20 -20 14 -28 -23 -28 -19 0 -35 4 -35 8 0 12 22 32 35 32 6 0 16 -5 23
-12z"/>
<path d="M2379 831 c-19 -15 -24 -29 -24 -64 0 -61 24 -87 80 -87 48 0 55 4
48 30 -4 15 -9 17 -29 10 -19 -8 -29 -5 -44 10 -25 25 -25 45 -1 69 13 13 27
17 41 14 22 -6 44 13 34 29 -10 16 -82 8 -105 -11z"/>
<path d="M2520 830 c-27 -27 -35 -65 -20 -101 15 -36 37 -49 84 -49 43 0 76
37 76 85 0 50 -33 85 -81 85 -25 0 -46 -7 -59 -20z m98 -62 c3 -23 -19 -58
-37 -58 -14 0 -39 25 -46 47 -4 15 0 28 15 43 19 19 24 20 43 7 12 -8 23 -26
25 -39z"/>
<path d="M2680 764 c0 -84 0 -84 26 -84 26 0 26 1 22 55 -4 44 -1 58 13 71 28
25 39 8 39 -62 0 -62 1 -64 25 -64 24 0 25 3 25 60 0 48 4 61 19 69 27 15 31
5 31 -66 0 -61 1 -63 25 -63 24 0 25 2 25 63 0 93 -38 130 -100 97 -12 -6 -21
-6 -25 -1 -3 6 -32 9 -65 9 l-60 -1 0 -83z"/>
<path d="M2276 713 c-10 -26 23 -48 42 -29 8 8 12 22 9 30 -8 21 -43 20 -51
-1z"/>
</g>
</svg>
